<?xml version="1.0" standalone="no"?>
<!DOCTYPE svg PUBLIC "-//W3C//DTD SVG 20010904//EN"
 "http://www.w3.org/TR/2001/REC-SVG-20010904/DTD/svg10.dtd">
<svg version="1.0" xmlns="http://www.w3.org/2000/svg"
 width="700.000000pt" height="700.000000pt" viewBox="0 0 700.000000 700.000000"
 preserveAspectRatio="xMidYMid meet">
<metadata>
Created by potrace 1.11, written by Peter Selinger 2001-2013
</metadata>
<g transform="translate(0.000000,700.000000) scale(0.100000,-0.100000)"
fill="#000000" stroke="none">
<path d="M1073 4442 c-57 -1 -104 -6 -104 -10 -1 -4 -3 -16 -4 -27 -5 -31 -15
-97 -20 -125 -3 -14 -7 -43 -10 -65 -4 -22 -10 -65 -15 -95 -5 -30 -12 -71
-15 -90 -3 -19 -10 -60 -15 -90 -5 -30 -12 -73 -15 -95 -5 -40 -10 -72 -20
-130 -9 -53 -33 -209 -40 -250 -8 -59 -25 -166 -31 -199 -10 -62 -55 -343 -59
-376 -3 -19 -7 -50 -10 -68 l-6 -33 453 4 c249 2 469 7 488 11 136 28 327 102
368 142 7 8 17 14 21 14 14 0 116 92 164 149 105 121 179 267 219 431 17 71
17 334 -1 415 -50 232 -243 395 -546 461 -89 20 -526 34 -802 26z m587 -532
c111 -30 173 -117 172 -243 0 -79 -27 -174 -64 -231 -33 -50 -113 -104 -187
-126 -81 -24 -191 -33 -191 -17 0 7 4 39 9 72 6 33 12 78 16 99 3 21 7 48 10
60 2 12 7 39 10 61 3 22 13 85 21 140 13 86 18 118 28 170 5 29 18 34 79 29
34 -2 78 -9 97 -14z"/>
<path d="M3956 4424 c-3 -8 -8 -36 -12 -64 l-7 -50 42 0 c22 0 41 -1 41 -2 0
-2 -7 -41 -15 -88 -9 -47 -18 -103 -21 -125 -3 -22 -7 -44 -8 -50 -2 -6 26
-10 73 -9 l76 2 7 33 c4 19 9 52 13 74 3 22 7 47 9 55 1 8 6 36 11 63 l7 47
43 0 42 0 7 46 c12 88 25 81 -148 81 -122 1 -156 -2 -160 -13z"/>
<path d="M4305 4430 c-3 -5 -30 -156 -49 -275 -2 -16 -7 -49 -11 -72 -8 -48
-16 -44 89 -46 36 -1 50 3 51 14 2 8 8 39 14 69 l11 55 46 2 45 2 -6 -42 c-3
-23 -8 -54 -11 -69 -3 -16 -2 -28 3 -29 54 -5 126 -2 133 6 8 11 17 47 25 110
3 22 8 51 11 65 2 14 7 37 9 53 3 15 10 54 15 87 6 33 9 64 6 69 -3 5 -36 8
-73 7 l-67 -1 -8 -45 c-15 -89 -13 -87 -64 -89 l-47 -1 8 42 c16 96 18 93 -58
94 -37 0 -70 -2 -72 -6z"/>
<path d="M4714 4401 c-3 -20 -12 -70 -19 -112 -8 -42 -17 -98 -20 -125 -4 -27
-10 -64 -15 -81 -6 -22 -5 -35 3 -40 15 -9 255 -10 270 -1 6 3 12 17 14 30 2
13 5 35 7 50 l4 27 -64 -3 c-60 -2 -65 0 -62 18 3 17 11 20 55 21 29 1 55 4
59 8 4 4 10 27 14 52 l7 45 -59 0 c-51 0 -59 2 -56 18 2 13 17 18 68 22 63 5
65 6 71 35 16 76 25 71 -131 71 l-140 0 -6 -35z"/>
<path d="M5059 4438 c-2 -8 -9 -49 -14 -87 -3 -24 -12 -80 -20 -125 -7 -44
-17 -103 -21 -131 -4 -27 -9 -57 -10 -65 -2 -8 -6 -35 -9 -60 -3 -25 -8 -52
-10 -60 -2 -8 -6 -35 -9 -60 -4 -25 -8 -56 -10 -70 -3 -14 -7 -43 -11 -64 -3
-21 -7 -48 -10 -60 -4 -19 -9 -49 -20 -126 -10 -67 -54 -345 -60 -380 -2 -14
-7 -43 -10 -65 -3 -22 -7 -51 -10 -65 -2 -14 -7 -43 -10 -65 -3 -22 -7 -47
-10 -55 -2 -8 -6 -36 -10 -62 l-6 -48 265 0 264 0 13 73 c7 39 14 75 15 80 1
4 2 10 3 13 0 3 18 -16 40 -43 97 -123 256 -174 417 -133 269 69 473 377 474
715 0 218 -79 374 -227 447 -154 76 -361 29 -516 -116 l-29 -27 6 39 c3 22 25
161 51 310 25 149 45 276 45 282 0 7 -92 10 -280 10 -154 0 -280 -1 -281 -2z
m619 -927 c78 -55 64 -187 -28 -268 -23 -20 -39 -27 -95 -37 -67 -13 -129 67
-119 153 16 142 144 222 242 152z"/>
<path d="M3349 3964 c-84 -17 -145 -48 -208 -109 l-58 -55 14 72 c7 39 11 73
9 76 -8 7 -526 7 -546 0 -13 -5 -20 -22 -25 -60 -4 -29 -9 -62 -11 -73 -2 -10
-6 -37 -9 -60 -3 -22 -8 -51 -10 -65 -6 -31 -10 -59 -30 -190 -9 -58 -20 -127
-25 -155 -5 -27 -19 -111 -31 -185 -11 -74 -22 -145 -24 -157 -2 -12 -9 -57
-15 -100 -6 -43 -13 -86 -16 -95 -5 -17 13 -18 278 -18 l284 0 19 118 c21 134
22 141 30 202 9 63 34 187 45 215 16 43 79 102 132 125 68 29 144 25 216 -13
35 -18 52 -23 53 -15 0 7 2 20 4 28 5 25 46 283 50 315 2 17 9 62 15 100 7 39
13 80 15 92 3 20 -1 21 -50 20 -29 -1 -77 -7 -106 -13z"/>
<path d="M3935 3965 c-211 -51 -391 -245 -467 -504 -34 -115 -34 -299 -1 -401
71 -215 235 -321 451 -288 74 11 161 54 241 119 l64 51 -7 -43 c-4 -24 -9 -59
-12 -76 l-6 -33 275 0 275 0 6 28 c5 23 32 195 50 322 3 19 8 46 11 60 2 13 7
42 10 65 3 22 8 51 10 65 3 14 7 39 9 55 3 17 10 62 17 100 6 39 12 84 14 100
2 17 13 84 24 150 11 66 23 141 26 168 l6 47 -274 0 -274 0 -7 -31 c-3 -17 -6
-44 -6 -60 0 -16 -3 -29 -6 -29 -3 0 -27 22 -53 48 -61 64 -137 93 -246 97
-44 1 -103 -3 -130 -10z m300 -439 c108 -45 94 -226 -23 -298 -45 -28 -121
-27 -160 1 -51 36 -61 134 -23 210 23 44 46 65 91 85 44 19 72 20 115 2z"/>
</g>
</svg>
