<?xml version="1.0" encoding="UTF-8" standalone="no"?>
<svg width="61px" height="100px" viewBox="0 0 61 100" version="1.1" xmlns="http://www.w3.org/2000/svg" xmlns:xlink="http://www.w3.org/1999/xlink">
    <!-- Generator: Sketch 39 (31667) - http://www.bohemiancoding.com/sketch -->
    <title>prate</title>
    <desc>Created with Sketch.</desc>
    <defs></defs>
    <g id="Page-1" stroke="none" stroke-width="1" fill="none" fill-rule="evenodd">
        <path d="M60.8658033,39.5703238 C60.8658033,12.6866687 54.522469,0 38.2110378,0 C28.6960363,0 21.5975431,6.49436611 19.6341301,8.30674735 C18.2748442,1.81238124 14.1969864,0 10.1191286,0 C6.34333434,0 2.11444478,0.30206354 0,0.75515885 L0,99.832 L20.389289,99.832 L20.389289,74.6096944 C22.6547655,76.4220756 27.6388139,78.9896157 34.7373071,78.9896157 C53.7673101,78.9896157 60.8658033,59.2044539 60.8658033,39.5703238 L60.8658033,39.5703238 Z M39.2682602,40.1744508 C39.2682602,49.5384206 37.455879,58.7513585 36.2476248,61.4699304 C35.9455613,61.4699304 33.8311165,62.5271528 29.6022269,62.5271528 C25.6754009,62.5271528 21.2954796,60.412708 20.389289,59.6575492 L20.389289,20.2382572 C20.389289,20.2382572 25.3733374,16.7645265 30.0553222,16.7645265 C35.7945295,16.7645265 39.2682602,19.1810348 39.2682602,40.1744508 L39.2682602,40.1744508 Z" id="prate" fill="#000000"></path>
    </g>
</svg>
