<?xml version="1.0" standalone="no"?>
<!DOCTYPE svg PUBLIC "-//W3C//DTD SVG 20010904//EN"
 "http://www.w3.org/TR/2001/REC-SVG-20010904/DTD/svg10.dtd">
<svg version="1.0" xmlns="http://www.w3.org/2000/svg"
 width="700.000000pt" height="700.000000pt" viewBox="0 0 700.000000 700.000000"
 preserveAspectRatio="xMidYMid meet">
<metadata>
Created by potrace 1.11, written by Peter Selinger 2001-2013
</metadata>
<g transform="translate(0.000000,700.000000) scale(0.100000,-0.100000)"
fill="#000000" stroke="none">
<path d="M1927 6763 c-1 -1 -45 -4 -97 -7 -102 -7 -150 -12 -245 -27 -33 -5
-63 -9 -67 -9 -5 0 -8 -1459 -8 -3243 l0 -3243 663 0 c364 0 664 3 667 7 3 4
5 374 4 823 l0 816 20 -14 c56 -36 155 -94 186 -108 254 -117 463 -158 765
-153 239 4 399 37 585 122 71 32 202 109 244 143 158 126 257 232 362 386 73
106 176 297 209 389 10 28 22 55 26 60 5 8 61 167 64 185 1 3 11 36 24 75 37
118 94 391 115 550 34 262 40 372 40 705 0 255 -6 470 -19 615 -10 124 -23
250 -30 299 -3 20 -7 53 -10 74 -12 85 -26 166 -30 172 -2 3 -6 24 -9 46 -4
33 -14 82 -31 154 -17 67 -60 211 -81 267 -42 112 -47 123 -106 241 -182 360
-456 572 -843 651 -173 36 -412 35 -606 -2 -163 -31 -377 -120 -559 -231 -80
-49 -250 -176 -308 -231 -24 -22 -47 -41 -51 -43 -4 -1 -16 28 -26 65 -65 245
-224 406 -450 455 -39 9 -391 19 -398 11z m1743 -1118 c74 -24 118 -54 170
-112 109 -122 184 -385 215 -753 24 -285 24 -977 1 -1120 -3 -14 -9 -72 -15
-130 -6 -58 -13 -116 -15 -130 -3 -14 -9 -56 -15 -95 -6 -38 -14 -86 -17 -105
-18 -118 -71 -340 -100 -417 -16 -40 -22 -44 -84 -58 -8 -2 -45 -11 -82 -19
-174 -42 -381 -38 -546 10 -97 28 -236 85 -298 122 l-40 24 0 1291 1 1290 24
16 c50 33 188 105 261 134 180 73 410 96 540 52z"/>
</g>
</svg>
