<svg width="135px" height="40px" viewBox="0 0 135 40" version="1.1" xmlns="http://www.w3.org/2000/svg" xmlns:xlink="http://www.w3.org/1999/xlink">
    <!-- Generator: Sketch 61 (89581) - https://sketch.com -->
    <title>logotype-site</title>
    <desc>Created with Sketch.</desc>
    <g id="Welcome" stroke="none" stroke-width="1" fill="none" fill-rule="evenodd">
        <g id="Content:-Desktop" transform="translate(-82.000000, -6.000000)" fill="#000000">
            <g id="Header">
                <g id="logotype-site" transform="translate(82.000000, 6.000000)">
                    <path d="M0.3744,9.5104 L2.016,9.5104 L2.016,17.3728 C2.016,19.8496 3.168,21.0592 5.4432,21.0592 C6.9408,21.0592 8.2656,20.656 8.8128,20.3104 L8.496,17.8048 C8.2656,17.92 7.6896,18.064 7.1136,18.064 C6.3648,18.064 5.9616,17.7472 5.9616,16.7968 L5.9616,9.5104 L8.7264,9.5104 L8.7264,6.5728 L5.9616,6.5728 L5.9616,3.1456 C3.1968,2.9728 2.2176,3.6064 2.2176,5.1328 L2.2176,6.5728 L0.3744,6.5728 L0.3744,9.5104 L0.3744,9.5104 Z M10.512,20.8 L14.4576,20.8 L14.4576,10.2304 C14.8608,9.7984 15.6384,9.3952 16.5024,9.3952 C17.3664,9.3952 17.7408,9.9136 17.7408,10.864 L17.7408,20.8 L21.6576,20.8 L21.6576,10 C21.6576,7.4656 20.6208,6.0256 18.2016,6.0256 C16.5888,6.0256 15.264,6.7744 14.4864,7.552 L14.4576,3.5776 C14.4576,1.8496 14.2272,1.4464 12.528,1.4464 C11.52,1.4464 10.512,1.8208 10.512,1.8208 L10.512,20.8 L10.512,20.8 Z M23.7024,13.5136 C23.7024,17.8336 25.2,21.088 29.4336,21.088 C31.6512,21.088 33.1776,20.6272 34.128,20.08 C34.1568,18.1216 33.8688,17.488 33.1776,17.488 C32.6304,17.488 31.7664,17.9776 30.24,17.9776 C28.656,17.9776 27.9072,16.8544 27.8208,14.896 L34.416,14.896 C34.5024,14.0896 34.5024,13.3408 34.5024,12.6784 C34.5024,8.2432 33.1488,6.0256 29.6064,6.0256 C25.5456,6.0256 23.7024,9.28 23.7024,13.5136 L23.7024,13.5136 Z M30.9312,12.3328 L27.792,12.5344 C27.792,10.8928 28.1664,9.7408 28.2528,9.424 C28.3392,9.3952 28.8288,9.0496 29.4624,9.0496 C30.5856,9.0496 31.0176,10.288 30.9312,12.3328 L30.9312,12.3328 Z" id="the"></path>
                    <path d="M58.3424,19.1488 C58.3424,10.0352 56.192,5.7344 50.6624,5.7344 C47.4368,5.7344 45.0304,7.936 44.3648,8.5504 C43.904,6.3488 42.5216,5.7344 41.1392,5.7344 C39.8592,5.7344 38.4256,5.8368 37.7088,5.9904 L37.7088,39.5776 L44.6208,39.5776 L44.6208,31.0272 C45.3888,31.6416 47.0784,32.512 49.4848,32.512 C55.936,32.512 58.3424,25.8048 58.3424,19.1488 L58.3424,19.1488 Z M51.0208,19.3536 C51.0208,22.528 50.4064,25.6512 49.9968,26.5728 C49.8944,26.5728 49.1776,26.9312 47.744,26.9312 C46.4128,26.9312 44.928,26.2144 44.6208,25.9584 L44.6208,12.5952 C44.6208,12.5952 46.3104,11.4176 47.8976,11.4176 C49.8432,11.4176 51.0208,12.2368 51.0208,19.3536 L51.0208,19.3536 Z M62.2336,32 L69.248,32 L69.248,14.6432 C70.3744,13.5168 72.0128,12.6976 74.2144,12.6976 C75.392,12.6976 75.648,11.8272 75.6992,10.0352 C75.7504,8.6528 75.648,6.9632 75.392,5.7344 C72.2688,5.7344 69.8624,7.5776 68.6336,9.984 C68.1728,6.8608 67.7632,5.7344 65.664,5.7344 C64.4864,5.7344 62.7968,6.0416 62.2336,6.4 L62.2336,32 L62.2336,32 Z M95.3088,32.0512 L95.3088,14.4384 C95.3088,7.8336 92.8,5.7344 86.8096,5.7344 C83.0208,5.7344 79.3856,6.656 77.184,7.68 C77.2352,11.0592 78.0032,12.288 79.6416,12.288 C81.0752,12.288 83.3792,11.4176 85.3248,11.4176 C88.0896,11.4176 88.3456,12.4416 88.3456,16.4864 C79.9488,16.9984 76.416,18.9952 76.416,25.088 C76.416,29.5424 78.72,32.512 82.5088,32.512 C85.5296,32.512 87.5776,31.1808 88.9088,29.5424 C89.216,31.8464 90.0864,32.512 92.0832,32.512 C93.1584,32.512 94.4384,32.3072 95.3088,32.0512 L95.3088,32.0512 Z M82.816,24.0128 C82.816,23.04 82.9696,22.016 83.328,21.248 C84.5568,20.8384 87.0656,20.5824 88.3456,20.48 L88.3456,25.6512 C87.3728,26.5216 86.2464,27.0336 84.9664,27.0336 C83.5328,27.0336 82.816,25.9072 82.816,24.0128 L82.816,24.0128 Z M98.2784,11.9296 L101.1968,11.9296 L101.1968,25.9072 C101.1968,30.3104 103.2448,32.4608 107.2896,32.4608 C109.952,32.4608 112.3072,31.744 113.28,31.1296 L112.7168,26.6752 C112.3072,26.88 111.2832,27.136 110.2592,27.136 C108.928,27.136 108.2112,26.5728 108.2112,24.8832 L108.2112,11.9296 L113.1264,11.9296 L113.1264,6.7072 L108.2112,6.7072 L108.2112,0.6144 C103.296,0.3072 101.5552,1.4336 101.5552,4.1472 L101.5552,6.7072 L98.2784,6.7072 L98.2784,11.9296 L98.2784,11.9296 Z M115.1744,19.0464 C115.1744,26.7264 117.8368,32.512 125.3632,32.512 C129.3056,32.512 132.0192,31.6928 133.7088,30.72 C133.76,27.2384 133.248,26.112 132.0192,26.112 C131.0464,26.112 129.5104,26.9824 126.7968,26.9824 C123.9808,26.9824 122.6496,24.9856 122.496,21.504 L134.2208,21.504 C134.3744,20.0704 134.3744,18.7392 134.3744,17.5616 C134.3744,9.6768 131.968,5.7344 125.6704,5.7344 C118.4512,5.7344 115.1744,11.52 115.1744,19.0464 L115.1744,19.0464 Z M128.0256,16.9472 L122.4448,17.3056 C122.4448,14.3872 123.1104,12.3392 123.264,11.776 C123.4176,11.7248 124.288,11.1104 125.4144,11.1104 C127.4112,11.1104 128.1792,13.312 128.0256,16.9472 L128.0256,16.9472 Z" id="prate"></path>
                </g>
            </g>
        </g>
    </g>
</svg>
